M48
; DRILL file {KiCad (5.99.0-1468-g7e1294a4b)} date 09/06/20 10:14:54
; FORMAT={-:-/ absolute / inch / decimal}
; #@! TF.CreationDate,2020-09-06T10:14:54+02:00
; #@! TF.GenerationSoftware,Kicad,Pcbnew,(5.99.0-1468-g7e1294a4b)
; #@! TF.FileFunction,Plated,1,2,PTH
FMAT,2
INCH
T1C0.0157
%
G90
G05
T1
X-1.2295Y-0.5169
X-1.1677Y0.2902
X-1.1606Y-0.0878
X-1.1142Y0.1642
X-1.0051Y0.2142
X-0.9874Y0.1685
X-0.9652Y0.2475
X-0.9432Y0.2894
X-0.9276Y0.1646
X-0.926Y0.3339
X-0.915Y0.022
X-0.9094Y-0.4528
X-0.9071Y-0.4071
X-0.9024Y-0.2972
X-0.9012Y-0.3488
X-0.9008Y-0.2504
X-0.898Y-0.2004
X-0.8669Y0.1362
X-0.861Y0.089
X-0.8319Y0.1583
X-0.8299Y-0.3665
X-0.815Y0.3228
X-0.7945Y0.1811
X-0.7449Y0.178
X-0.7165Y0.1461
X-0.6717Y0.1791
X-0.6567Y0.0017
X-0.6177Y-0.4732
X-0.6165Y0.0378
X-0.5996Y-0.3638
X-0.5657Y-0.4732
X-0.554Y0.102
X-0.537Y-0.3657
X-0.5323Y0.071
X-0.5189Y0.3398
X-0.5047Y0.102
X-0.4965Y-0.4732
X-0.4823Y-0.3614
X-0.4759Y0.3824
X-0.4738Y0.1656
X-0.4681Y0.3378
X-0.4564Y0.0775
X-0.4429Y-0.3622
X-0.4378Y0.3961
X-0.4295Y0.0509
X-0.3984Y-0.3622
X-0.3965Y0.0295
X-0.3909Y0.3091
X-0.3882Y0.1622
X-0.3532Y0.1478
X-0.3498Y-0.4732
X-0.3465Y-0.3638
X-0.3421Y-0.0075
X-0.298Y0.1323
X-0.2748Y0.1709
X-0.2701Y-0.3614
X-0.2591Y0.0748
X-0.2408Y-0.0084
X-0.2157Y-0.3602
X-0.1972Y0.0843
X-0.1758Y0.1408
X-0.1606Y-0.0142
X-0.1594Y-0.3587
X-0.1543Y0.0748
X-0.1086Y-0.4548
X-0.0933Y0.0193
X-0.0122Y0.3087
X-0.0114Y0.0488
X-0.0004Y-0.0035
X0.0421Y0.5654
X0.0441Y-0.4921
X0.05Y-0.2803
X0.0547Y0.3961
X0.1023Y-0.3696
X0.1051Y-0.4969
X0.1579Y-0.4969
X0.2146Y0.4008
X0.2579Y-0.2264
X0.2654Y-0.0213
X0.2665Y0.0508
X0.335Y-0.1177
X0.348Y0.102
X0.3508Y0.4567
X0.3764Y-0.4969
X0.3782Y0.1246
X0.3897Y-0.0482
X0.397Y0.0073
X0.4039Y0.1524
X0.4174Y-0.1477
X0.4228Y-0.4969
X0.4341Y0.1786
X0.4348Y-0.0566
X0.4528Y-0.108
X0.4588Y0.2072
X0.4594Y-0.1626
X0.4681Y-0.4969
X0.4838Y0.2356
X0.5102Y0.2627
X0.5157Y-0.4969
X0.5405Y0.2852
X0.5421Y0.5177
X0.561Y-0.4969
X0.5665Y0.3205
X0.6041Y-0.4325
X0.6236Y-0.4969
X0.6705Y0.0142
X0.6929Y0.3898
X0.6972Y-0.4354
X0.8181Y-0.1854
X0.8315Y-0.4969
X0.8634Y0.4224
X0.9051Y0.3441
X0.9335Y0.2098
X0.9626Y-0.0768
X1.074Y-0.4969
X1.0831Y0.5189
T0
M30
