%TF.GenerationSoftware,KiCad,Pcbnew,(5.99.0-1468-g7e1294a4b)*%
%TF.CreationDate,2020-09-06T10:14:52+02:00*%
%TF.ProjectId,WonderSwan_32MB,576f6e64-6572-4537-9761-6e5f33324d42,rev?*%
%TF.SameCoordinates,PX87734b0PY5d70e60*%
%TF.FileFunction,Paste,Top*%
%TF.FilePolarity,Positive*%
%FSLAX46Y46*%
G04 Gerber Fmt 4.6, Leading zero omitted, Abs format (unit mm)*
G04 Created by KiCad (PCBNEW (5.99.0-1468-g7e1294a4b)) date 2020-09-06 10:14:52*
%MOMM*%
%LPD*%
G01*
G04 APERTURE LIST*
%ADD10R,0.750000X0.800000*%
%ADD11R,0.600000X2.200000*%
%ADD12C,1.500000*%
%ADD13R,1.500000X1.500000*%
%ADD14R,0.850900X5.999480*%
%ADD15R,0.850900X5.250180*%
G04 APERTURE END LIST*
D10*
X-455000Y-8745000D03*
X-455000Y-7245000D03*
X-2430000Y-7245000D03*
X-2430000Y-8745000D03*
X-29705000Y4005000D03*
X-29705000Y5505000D03*
G36*
X2281992Y5321662D02*
G01*
X1751662Y5851992D01*
X2317348Y6417678D01*
X2847678Y5887348D01*
X2281992Y5321662D01*
G37*
G36*
X3342652Y6382322D02*
G01*
X2812322Y6912652D01*
X3378008Y7478338D01*
X3908338Y6948008D01*
X3342652Y6382322D01*
G37*
G36*
X7152322Y10742348D02*
G01*
X7682652Y11272678D01*
X8248338Y10706992D01*
X7718008Y10176662D01*
X7152322Y10742348D01*
G37*
G36*
X6091662Y11803008D02*
G01*
X6621992Y12333338D01*
X7187678Y11767652D01*
X6657348Y11237322D01*
X6091662Y11803008D01*
G37*
G36*
X20148008Y10538338D02*
G01*
X20678338Y10008008D01*
X20112652Y9442322D01*
X19582322Y9972652D01*
X20148008Y10538338D01*
G37*
G36*
X19087348Y9477678D02*
G01*
X19617678Y8947348D01*
X19051992Y8381662D01*
X18521662Y8911992D01*
X19087348Y9477678D01*
G37*
G36*
X22152322Y6357348D02*
G01*
X22682652Y6887678D01*
X23248338Y6321992D01*
X22718008Y5791662D01*
X22152322Y6357348D01*
G37*
G36*
X21091662Y7418008D02*
G01*
X21621992Y7948338D01*
X22187678Y7382652D01*
X21657348Y6852322D01*
X21091662Y7418008D01*
G37*
G36*
X22902652Y-3437678D02*
G01*
X22372322Y-2907348D01*
X22938008Y-2341662D01*
X23468338Y-2871992D01*
X22902652Y-3437678D01*
G37*
G36*
X21841992Y-4498338D02*
G01*
X21311662Y-3968008D01*
X21877348Y-3402322D01*
X22407678Y-3932652D01*
X21841992Y-4498338D01*
G37*
G36*
X16341992Y-10618338D02*
G01*
X15811662Y-10088008D01*
X16377348Y-9522322D01*
X16907678Y-10052652D01*
X16341992Y-10618338D01*
G37*
G36*
X17402652Y-9557678D02*
G01*
X16872322Y-9027348D01*
X17438008Y-8461662D01*
X17968338Y-8991992D01*
X17402652Y-9557678D01*
G37*
G36*
X4567348Y-6922322D02*
G01*
X5097678Y-7452652D01*
X4531992Y-8018338D01*
X4001662Y-7488008D01*
X4567348Y-6922322D01*
G37*
G36*
X5628008Y-5861662D02*
G01*
X6158338Y-6391992D01*
X5592652Y-6957678D01*
X5062322Y-6427348D01*
X5628008Y-5861662D01*
G37*
G36*
X22312624Y85133D02*
G01*
X22492229Y264738D01*
X23210650Y-453683D01*
X23031045Y-633288D01*
X22312624Y85133D01*
G37*
G36*
X13835262Y-8392229D02*
G01*
X14014867Y-8212624D01*
X14733288Y-8931045D01*
X14553683Y-9110650D01*
X13835262Y-8392229D01*
G37*
G36*
X14194473Y-8033019D02*
G01*
X14374078Y-7853414D01*
X15092499Y-8571835D01*
X14912894Y-8751440D01*
X14194473Y-8033019D01*
G37*
G36*
X14535722Y-7691769D02*
G01*
X14715327Y-7512164D01*
X15433748Y-8230585D01*
X15254143Y-8410190D01*
X14535722Y-7691769D01*
G37*
G36*
X14894933Y-7332559D02*
G01*
X15074538Y-7152954D01*
X15792959Y-7871375D01*
X15613354Y-8050980D01*
X14894933Y-7332559D01*
G37*
G36*
X15254143Y-6973349D02*
G01*
X15433748Y-6793744D01*
X16152169Y-7512165D01*
X15972564Y-7691770D01*
X15254143Y-6973349D01*
G37*
G36*
X15595393Y-6632099D02*
G01*
X15774998Y-6452494D01*
X16493419Y-7170915D01*
X16313814Y-7350520D01*
X15595393Y-6632099D01*
G37*
G36*
X15954603Y-6272889D02*
G01*
X16134208Y-6093284D01*
X16852629Y-6811705D01*
X16673024Y-6991310D01*
X15954603Y-6272889D01*
G37*
G36*
X16313813Y-5913678D02*
G01*
X16493418Y-5734073D01*
X17211839Y-6452494D01*
X17032234Y-6632099D01*
X16313813Y-5913678D01*
G37*
G36*
X16655063Y-5572429D02*
G01*
X16834668Y-5392824D01*
X17553089Y-6111245D01*
X17373484Y-6290850D01*
X16655063Y-5572429D01*
G37*
G36*
X17014273Y-5213218D02*
G01*
X17193878Y-5033613D01*
X17912299Y-5752034D01*
X17732694Y-5931639D01*
X17014273Y-5213218D01*
G37*
G36*
X17373483Y-4854008D02*
G01*
X17553088Y-4674403D01*
X18271509Y-5392824D01*
X18091904Y-5572429D01*
X17373483Y-4854008D01*
G37*
G36*
X17732694Y-4494798D02*
G01*
X17912299Y-4315193D01*
X18630720Y-5033614D01*
X18451115Y-5213219D01*
X17732694Y-4494798D01*
G37*
G36*
X18073943Y-4153548D02*
G01*
X18253548Y-3973943D01*
X18971969Y-4692364D01*
X18792364Y-4871969D01*
X18073943Y-4153548D01*
G37*
G36*
X18433153Y-3794338D02*
G01*
X18612758Y-3614733D01*
X19331179Y-4333154D01*
X19151574Y-4512759D01*
X18433153Y-3794338D01*
G37*
G36*
X18792364Y-3435128D02*
G01*
X18971969Y-3255523D01*
X19690390Y-3973944D01*
X19510785Y-4153549D01*
X18792364Y-3435128D01*
G37*
G36*
X19133613Y-3093878D02*
G01*
X19313218Y-2914273D01*
X20031639Y-3632694D01*
X19852034Y-3812299D01*
X19133613Y-3093878D01*
G37*
G36*
X19492824Y-2734668D02*
G01*
X19672429Y-2555063D01*
X20390850Y-3273484D01*
X20211245Y-3453089D01*
X19492824Y-2734668D01*
G37*
G36*
X19852034Y-2375458D02*
G01*
X20031639Y-2195853D01*
X20750060Y-2914274D01*
X20570455Y-3093879D01*
X19852034Y-2375458D01*
G37*
G36*
X20193284Y-2034208D02*
G01*
X20372889Y-1854603D01*
X21091310Y-2573024D01*
X20911705Y-2752629D01*
X20193284Y-2034208D01*
G37*
G36*
X20552494Y-1674998D02*
G01*
X20732099Y-1495393D01*
X21450520Y-2213814D01*
X21270915Y-2393419D01*
X20552494Y-1674998D01*
G37*
G36*
X20911704Y-1315787D02*
G01*
X21091309Y-1136182D01*
X21809730Y-1854603D01*
X21630125Y-2034208D01*
X20911704Y-1315787D01*
G37*
G36*
X21252954Y-974538D02*
G01*
X21432559Y-794933D01*
X22150980Y-1513354D01*
X21971375Y-1692959D01*
X21252954Y-974538D01*
G37*
G36*
X21612164Y-615327D02*
G01*
X21791769Y-435722D01*
X22510190Y-1154143D01*
X22330585Y-1333748D01*
X21612164Y-615327D01*
G37*
G36*
X21971374Y-256117D02*
G01*
X22150979Y-76512D01*
X22869400Y-794933D01*
X22689795Y-974538D01*
X21971374Y-256117D01*
G37*
G36*
X11356712Y-8931045D02*
G01*
X12075133Y-8212624D01*
X12254738Y-8392229D01*
X11536317Y-9110650D01*
X11356712Y-8931045D01*
G37*
G36*
X2879350Y-453683D02*
G01*
X3597771Y264738D01*
X3777376Y85133D01*
X3058955Y-633288D01*
X2879350Y-453683D01*
G37*
G36*
X3238560Y-812894D02*
G01*
X3956981Y-94473D01*
X4136586Y-274078D01*
X3418165Y-992499D01*
X3238560Y-812894D01*
G37*
G36*
X3579810Y-1154143D02*
G01*
X4298231Y-435722D01*
X4477836Y-615327D01*
X3759415Y-1333748D01*
X3579810Y-1154143D01*
G37*
G36*
X3939020Y-1513354D02*
G01*
X4657441Y-794933D01*
X4837046Y-974538D01*
X4118625Y-1692959D01*
X3939020Y-1513354D01*
G37*
G36*
X4298230Y-1872564D02*
G01*
X5016651Y-1154143D01*
X5196256Y-1333748D01*
X4477835Y-2052169D01*
X4298230Y-1872564D01*
G37*
G36*
X4639480Y-2213814D02*
G01*
X5357901Y-1495393D01*
X5537506Y-1674998D01*
X4819085Y-2393419D01*
X4639480Y-2213814D01*
G37*
G36*
X4998690Y-2573024D02*
G01*
X5717111Y-1854603D01*
X5896716Y-2034208D01*
X5178295Y-2752629D01*
X4998690Y-2573024D01*
G37*
G36*
X5357901Y-2932234D02*
G01*
X6076322Y-2213813D01*
X6255927Y-2393418D01*
X5537506Y-3111839D01*
X5357901Y-2932234D01*
G37*
G36*
X5699150Y-3273484D02*
G01*
X6417571Y-2555063D01*
X6597176Y-2734668D01*
X5878755Y-3453089D01*
X5699150Y-3273484D01*
G37*
G36*
X6058361Y-3632694D02*
G01*
X6776782Y-2914273D01*
X6956387Y-3093878D01*
X6237966Y-3812299D01*
X6058361Y-3632694D01*
G37*
G36*
X6417571Y-3991904D02*
G01*
X7135992Y-3273483D01*
X7315597Y-3453088D01*
X6597176Y-4171509D01*
X6417571Y-3991904D01*
G37*
G36*
X6776781Y-4351115D02*
G01*
X7495202Y-3632694D01*
X7674807Y-3812299D01*
X6956386Y-4530720D01*
X6776781Y-4351115D01*
G37*
G36*
X7118031Y-4692364D02*
G01*
X7836452Y-3973943D01*
X8016057Y-4153548D01*
X7297636Y-4871969D01*
X7118031Y-4692364D01*
G37*
G36*
X7477241Y-5051574D02*
G01*
X8195662Y-4333153D01*
X8375267Y-4512758D01*
X7656846Y-5231179D01*
X7477241Y-5051574D01*
G37*
G36*
X7836451Y-5410785D02*
G01*
X8554872Y-4692364D01*
X8734477Y-4871969D01*
X8016056Y-5590390D01*
X7836451Y-5410785D01*
G37*
G36*
X8177701Y-5752034D02*
G01*
X8896122Y-5033613D01*
X9075727Y-5213218D01*
X8357306Y-5931639D01*
X8177701Y-5752034D01*
G37*
G36*
X8536911Y-6111245D02*
G01*
X9255332Y-5392824D01*
X9434937Y-5572429D01*
X8716516Y-6290850D01*
X8536911Y-6111245D01*
G37*
G36*
X8896121Y-6470455D02*
G01*
X9614542Y-5752034D01*
X9794147Y-5931639D01*
X9075726Y-6650060D01*
X8896121Y-6470455D01*
G37*
G36*
X9237371Y-6811705D02*
G01*
X9955792Y-6093284D01*
X10135397Y-6272889D01*
X9416976Y-6991310D01*
X9237371Y-6811705D01*
G37*
G36*
X9596581Y-7170915D02*
G01*
X10315002Y-6452494D01*
X10494607Y-6632099D01*
X9776186Y-7350520D01*
X9596581Y-7170915D01*
G37*
G36*
X9955792Y-7530125D02*
G01*
X10674213Y-6811704D01*
X10853818Y-6991309D01*
X10135397Y-7709730D01*
X9955792Y-7530125D01*
G37*
G36*
X10297041Y-7871375D02*
G01*
X11015462Y-7152954D01*
X11195067Y-7332559D01*
X10476646Y-8050980D01*
X10297041Y-7871375D01*
G37*
G36*
X10656252Y-8230585D02*
G01*
X11374673Y-7512164D01*
X11554278Y-7691769D01*
X10835857Y-8410190D01*
X10656252Y-8230585D01*
G37*
G36*
X11015462Y-8589795D02*
G01*
X11733883Y-7871374D01*
X11913488Y-8050979D01*
X11195067Y-8769400D01*
X11015462Y-8589795D01*
G37*
G36*
X22312624Y2024867D02*
G01*
X23031045Y2743288D01*
X23210650Y2563683D01*
X22492229Y1845262D01*
X22312624Y2024867D01*
G37*
G36*
X21953414Y2384078D02*
G01*
X22671835Y3102499D01*
X22851440Y2922894D01*
X22133019Y2204473D01*
X21953414Y2384078D01*
G37*
G36*
X21612164Y2725327D02*
G01*
X22330585Y3443748D01*
X22510190Y3264143D01*
X21791769Y2545722D01*
X21612164Y2725327D01*
G37*
G36*
X21252954Y3084538D02*
G01*
X21971375Y3802959D01*
X22150980Y3623354D01*
X21432559Y2904933D01*
X21252954Y3084538D01*
G37*
G36*
X20893744Y3443748D02*
G01*
X21612165Y4162169D01*
X21791770Y3982564D01*
X21073349Y3264143D01*
X20893744Y3443748D01*
G37*
G36*
X20552494Y3784998D02*
G01*
X21270915Y4503419D01*
X21450520Y4323814D01*
X20732099Y3605393D01*
X20552494Y3784998D01*
G37*
G36*
X20193284Y4144208D02*
G01*
X20911705Y4862629D01*
X21091310Y4683024D01*
X20372889Y3964603D01*
X20193284Y4144208D01*
G37*
G36*
X19834073Y4503418D02*
G01*
X20552494Y5221839D01*
X20732099Y5042234D01*
X20013678Y4323813D01*
X19834073Y4503418D01*
G37*
G36*
X19492824Y4844668D02*
G01*
X20211245Y5563089D01*
X20390850Y5383484D01*
X19672429Y4665063D01*
X19492824Y4844668D01*
G37*
G36*
X19133613Y5203878D02*
G01*
X19852034Y5922299D01*
X20031639Y5742694D01*
X19313218Y5024273D01*
X19133613Y5203878D01*
G37*
G36*
X18774403Y5563088D02*
G01*
X19492824Y6281509D01*
X19672429Y6101904D01*
X18954008Y5383483D01*
X18774403Y5563088D01*
G37*
G36*
X18415193Y5922299D02*
G01*
X19133614Y6640720D01*
X19313219Y6461115D01*
X18594798Y5742694D01*
X18415193Y5922299D01*
G37*
G36*
X18073943Y6263548D02*
G01*
X18792364Y6981969D01*
X18971969Y6802364D01*
X18253548Y6083943D01*
X18073943Y6263548D01*
G37*
G36*
X17714733Y6622758D02*
G01*
X18433154Y7341179D01*
X18612759Y7161574D01*
X17894338Y6443153D01*
X17714733Y6622758D01*
G37*
G36*
X17355523Y6981969D02*
G01*
X18073944Y7700390D01*
X18253549Y7520785D01*
X17535128Y6802364D01*
X17355523Y6981969D01*
G37*
G36*
X17014273Y7323218D02*
G01*
X17732694Y8041639D01*
X17912299Y7862034D01*
X17193878Y7143613D01*
X17014273Y7323218D01*
G37*
G36*
X16655063Y7682429D02*
G01*
X17373484Y8400850D01*
X17553089Y8221245D01*
X16834668Y7502824D01*
X16655063Y7682429D01*
G37*
G36*
X16295853Y8041639D02*
G01*
X17014274Y8760060D01*
X17193879Y8580455D01*
X16475458Y7862034D01*
X16295853Y8041639D01*
G37*
G36*
X15954603Y8382889D02*
G01*
X16673024Y9101310D01*
X16852629Y8921705D01*
X16134208Y8203284D01*
X15954603Y8382889D01*
G37*
G36*
X15595393Y8742099D02*
G01*
X16313814Y9460520D01*
X16493419Y9280915D01*
X15774998Y8562494D01*
X15595393Y8742099D01*
G37*
G36*
X15236182Y9101309D02*
G01*
X15954603Y9819730D01*
X16134208Y9640125D01*
X15415787Y8921704D01*
X15236182Y9101309D01*
G37*
G36*
X14894933Y9442559D02*
G01*
X15613354Y10160980D01*
X15792959Y9981375D01*
X15074538Y9262954D01*
X14894933Y9442559D01*
G37*
G36*
X14535722Y9801769D02*
G01*
X15254143Y10520190D01*
X15433748Y10340585D01*
X14715327Y9622164D01*
X14535722Y9801769D01*
G37*
G36*
X14176512Y10160979D02*
G01*
X14894933Y10879400D01*
X15074538Y10699795D01*
X14356117Y9981374D01*
X14176512Y10160979D01*
G37*
G36*
X13835262Y10502229D02*
G01*
X14553683Y11220650D01*
X14733288Y11041045D01*
X14014867Y10322624D01*
X13835262Y10502229D01*
G37*
G36*
X11356712Y11041045D02*
G01*
X11536317Y11220650D01*
X12254738Y10502229D01*
X12075133Y10322624D01*
X11356712Y11041045D01*
G37*
G36*
X10997501Y10681835D02*
G01*
X11177106Y10861440D01*
X11895527Y10143019D01*
X11715922Y9963414D01*
X10997501Y10681835D01*
G37*
G36*
X10656252Y10340585D02*
G01*
X10835857Y10520190D01*
X11554278Y9801769D01*
X11374673Y9622164D01*
X10656252Y10340585D01*
G37*
G36*
X10297041Y9981375D02*
G01*
X10476646Y10160980D01*
X11195067Y9442559D01*
X11015462Y9262954D01*
X10297041Y9981375D01*
G37*
G36*
X9937831Y9622165D02*
G01*
X10117436Y9801770D01*
X10835857Y9083349D01*
X10656252Y8903744D01*
X9937831Y9622165D01*
G37*
G36*
X9596581Y9280915D02*
G01*
X9776186Y9460520D01*
X10494607Y8742099D01*
X10315002Y8562494D01*
X9596581Y9280915D01*
G37*
G36*
X9237371Y8921705D02*
G01*
X9416976Y9101310D01*
X10135397Y8382889D01*
X9955792Y8203284D01*
X9237371Y8921705D01*
G37*
G36*
X8878161Y8562494D02*
G01*
X9057766Y8742099D01*
X9776187Y8023678D01*
X9596582Y7844073D01*
X8878161Y8562494D01*
G37*
G36*
X8536911Y8221245D02*
G01*
X8716516Y8400850D01*
X9434937Y7682429D01*
X9255332Y7502824D01*
X8536911Y8221245D01*
G37*
G36*
X8177701Y7862034D02*
G01*
X8357306Y8041639D01*
X9075727Y7323218D01*
X8896122Y7143613D01*
X8177701Y7862034D01*
G37*
G36*
X7818491Y7502824D02*
G01*
X7998096Y7682429D01*
X8716517Y6964008D01*
X8536912Y6784403D01*
X7818491Y7502824D01*
G37*
G36*
X7459280Y7143614D02*
G01*
X7638885Y7323219D01*
X8357306Y6604798D01*
X8177701Y6425193D01*
X7459280Y7143614D01*
G37*
G36*
X7118031Y6802364D02*
G01*
X7297636Y6981969D01*
X8016057Y6263548D01*
X7836452Y6083943D01*
X7118031Y6802364D01*
G37*
G36*
X6758821Y6443154D02*
G01*
X6938426Y6622759D01*
X7656847Y5904338D01*
X7477242Y5724733D01*
X6758821Y6443154D01*
G37*
G36*
X6399610Y6083944D02*
G01*
X6579215Y6263549D01*
X7297636Y5545128D01*
X7118031Y5365523D01*
X6399610Y6083944D01*
G37*
G36*
X6058361Y5742694D02*
G01*
X6237966Y5922299D01*
X6956387Y5203878D01*
X6776782Y5024273D01*
X6058361Y5742694D01*
G37*
G36*
X5699150Y5383484D02*
G01*
X5878755Y5563089D01*
X6597176Y4844668D01*
X6417571Y4665063D01*
X5699150Y5383484D01*
G37*
G36*
X5339940Y5024274D02*
G01*
X5519545Y5203879D01*
X6237966Y4485458D01*
X6058361Y4305853D01*
X5339940Y5024274D01*
G37*
G36*
X4998690Y4683024D02*
G01*
X5178295Y4862629D01*
X5896716Y4144208D01*
X5717111Y3964603D01*
X4998690Y4683024D01*
G37*
G36*
X4639480Y4323814D02*
G01*
X4819085Y4503419D01*
X5537506Y3784998D01*
X5357901Y3605393D01*
X4639480Y4323814D01*
G37*
G36*
X4280270Y3964603D02*
G01*
X4459875Y4144208D01*
X5178296Y3425787D01*
X4998691Y3246182D01*
X4280270Y3964603D01*
G37*
G36*
X3939020Y3623354D02*
G01*
X4118625Y3802959D01*
X4837046Y3084538D01*
X4657441Y2904933D01*
X3939020Y3623354D01*
G37*
G36*
X3579810Y3264143D02*
G01*
X3759415Y3443748D01*
X4477836Y2725327D01*
X4298231Y2545722D01*
X3579810Y3264143D01*
G37*
G36*
X3220600Y2904933D02*
G01*
X3400205Y3084538D01*
X4118626Y2366117D01*
X3939021Y2186512D01*
X3220600Y2904933D01*
G37*
G36*
X2879350Y2563683D02*
G01*
X3058955Y2743288D01*
X3777376Y2024867D01*
X3597771Y1845262D01*
X2879350Y2563683D01*
G37*
D11*
X-26440000Y12220000D03*
X-25170000Y12220000D03*
X-23900000Y12220000D03*
X-22630000Y12220000D03*
X-21360000Y12220000D03*
X-20090000Y12220000D03*
X-18820000Y12220000D03*
X-17550000Y12220000D03*
X-16280000Y12220000D03*
X-15010000Y12220000D03*
X-13740000Y12220000D03*
X-12470000Y12220000D03*
X-11200000Y12220000D03*
X-9930000Y12220000D03*
X-8660000Y12220000D03*
X-7390000Y12220000D03*
X-6120000Y12220000D03*
X-4850000Y12220000D03*
X-3580000Y12220000D03*
X-2310000Y12220000D03*
X-1040000Y12220000D03*
X230000Y12220000D03*
X230000Y-2460000D03*
X-1040000Y-2460000D03*
X-2310000Y-2460000D03*
X-3580000Y-2460000D03*
X-4850000Y-2460000D03*
X-6120000Y-2460000D03*
X-7390000Y-2460000D03*
X-8660000Y-2460000D03*
X-17550000Y-2460000D03*
X-15010000Y-2460000D03*
X-18820000Y-2460000D03*
X-21360000Y-2460000D03*
X-16280000Y-2460000D03*
X-20090000Y-2460000D03*
X-13740000Y-2460000D03*
X-12470000Y-2460000D03*
X-9930000Y-2460000D03*
X-22630000Y-2460000D03*
X-23900000Y-2460000D03*
X-26440000Y-2460000D03*
X-11200000Y-2460000D03*
X-25170000Y-2460000D03*
D12*
X25880000Y13370000D03*
X23880000Y13370000D03*
X21880000Y13370000D03*
X19880000Y13370000D03*
X17880000Y13370000D03*
D13*
X15880000Y13370000D03*
D14*
X-31330000Y-18070620D03*
D15*
X-30080320Y-17689620D03*
X-28830640Y-17689620D03*
X-27580960Y-17689620D03*
D14*
X-2579740Y-18070620D03*
X-1330060Y-18070620D03*
X27420200Y-18070620D03*
D15*
X-26331280Y-17689620D03*
X-25079060Y-17689620D03*
X-23829380Y-17689620D03*
X-22579700Y-17689620D03*
X-21330020Y-17689620D03*
X-20080340Y-17689620D03*
X-18830660Y-17689620D03*
X-17580980Y-17689620D03*
X-16331300Y-17689620D03*
X-15079080Y-17689620D03*
X-13829400Y-17689620D03*
X-12579720Y-17689620D03*
X-11330040Y-17689620D03*
X-10080360Y-17689620D03*
X-8830680Y-17689620D03*
X-7581000Y-17689620D03*
X-6331320Y-17689620D03*
X-5081640Y-17689620D03*
X-3831960Y-17689620D03*
X-80380Y-17689620D03*
X1169300Y-17689620D03*
X2418980Y-17689620D03*
X3668660Y-17689620D03*
X4918340Y-17689620D03*
X6168020Y-17689620D03*
X7420240Y-17689620D03*
X8669920Y-17689620D03*
X9919600Y-17689620D03*
X11169280Y-17689620D03*
X12418960Y-17689620D03*
X13668640Y-17689620D03*
X14918320Y-17689620D03*
X16168000Y-17689620D03*
X17420220Y-17689620D03*
X18669900Y-17689620D03*
X19919580Y-17689620D03*
X21169260Y-17689620D03*
X22418940Y-17689620D03*
X23668620Y-17689620D03*
X24918300Y-17689620D03*
X26167980Y-17689620D03*
G36*
X2611992Y-6428338D02*
G01*
X2081662Y-5898008D01*
X2647348Y-5332322D01*
X3177678Y-5862652D01*
X2611992Y-6428338D01*
G37*
G36*
X3672652Y-5367678D02*
G01*
X3142322Y-4837348D01*
X3708008Y-4271662D01*
X4238338Y-4801992D01*
X3672652Y-5367678D01*
G37*
M02*
